<svg version="1.1" id="icon-amg" xmlns="http://www.w3.org/2000/svg" xmlns:xlink="http://www.w3.org/1999/xlink" xml:space="preserve" x="0px" y="0px" viewBox="0 0 79 8">
    <g>
        <path points="M78.0478528,3.41349693 C78.0478528,3.17423313 77.8404908,2.96687117 77.601227,2.96687117 L77.3779141,2.96687117 L70.4711656,2.96687117 L70.2478528,2.96687117 C70.008589,2.96687117 69.801227,3.17423313 69.801227,3.41349693 L69.801227,3.49325153 L69.801227,4.05153374 C69.801227,4.29079755 70.008589,4.51411043 70.2478528,4.51411043 L74.8736196,4.51411043 C75.1766871,4.51411043 75.1607362,4.65766871 75.1607362,5.00858896 L75.1607362,5.08834356 C75.1607362,5.4392638 75.1766871,5.5190184 74.8736196,5.5190184 L65.5582822,5.5190184 L65.4785276,5.5190184 C65.2392638,5.5190184 65.0319018,5.31165644 65.0319018,5.07239264 L65.0319018,5.00858896 L65.0319018,2.4404908 L65.0319018,2.3607362 C65.0319018,2.12147239 65.2233129,1.91411043 65.4785276,1.91411043 L65.5582822,1.91411043 L77.2822086,1.91411043 L77.601227,1.91411043 C77.8404908,1.91411043 78.0478528,1.70674847 78.0478528,1.46748466 L78.0478528,1.27607362 L78.0478528,0.66993865 L78.0478528,0.446625767 C78.0478528,0.207361963 77.8404908,0 77.601227,0 L77.2822086,0 L67.0417178,0 L64.7128834,0 L62.6711656,0 C62.4319018,0 62.2245399,0.207361963 62.2245399,0.446625767 L62.2245399,7.08220859 C62.2245399,7.32147239 62.4319018,7.52883436 62.6711656,7.52883436 L64.5693252,7.52883436 L67.0257669,7.52883436 L77.3779141,7.52883436 L77.601227,7.52883436 C77.8404908,7.52883436 78.0478528,7.32147239 78.0478528,7.08220859 L78.0478528,6.7791411 L78.0478528,3.76441718 L78.0478528,3.34969325" d="M78.0478528,3.41349693 C78.0478528,3.17423313 77.8404908,2.96687117 77.601227,2.96687117 L77.3779141,2.96687117 L70.4711656,2.96687117 L70.2478528,2.96687117 C70.008589,2.96687117 69.801227,3.17423313 69.801227,3.41349693 L69.801227,3.49325153 L69.801227,4.05153374 C69.801227,4.29079755 70.008589,4.51411043 70.2478528,4.51411043 L74.8736196,4.51411043 C75.1766871,4.51411043 75.1607362,4.65766871 75.1607362,5.00858896 L75.1607362,5.08834356 C75.1607362,5.4392638 75.1766871,5.5190184 74.8736196,5.5190184 L65.5582822,5.5190184 L65.4785276,5.5190184 C65.2392638,5.5190184 65.0319018,5.31165644 65.0319018,5.07239264 L65.0319018,5.00858896 L65.0319018,2.4404908 L65.0319018,2.3607362 C65.0319018,2.12147239 65.2233129,1.91411043 65.4785276,1.91411043 L65.5582822,1.91411043 L77.2822086,1.91411043 L77.601227,1.91411043 C77.8404908,1.91411043 78.0478528,1.70674847 78.0478528,1.46748466 L78.0478528,1.27607362 L78.0478528,0.66993865 L78.0478528,0.446625767 C78.0478528,0.207361963 77.8404908,0 77.601227,0 L77.2822086,0 L67.0417178,0 L64.7128834,0 L62.6711656,0 C62.4319018,0 62.2245399,0.207361963 62.2245399,0.446625767 L62.2245399,7.08220859 C62.2245399,7.32147239 62.4319018,7.52883436 62.6711656,7.52883436 L64.5693252,7.52883436 L67.0257669,7.52883436 L77.3779141,7.52883436 L77.601227,7.52883436 C77.8404908,7.52883436 78.0478528,7.32147239 78.0478528,7.08220859 L78.0478528,6.7791411 L78.0478528,3.76441718 L78.0478528,3.34969325">
        </path>
        <path points="M54.0257669,5.24785276 C53.8184049,5.37546012 53.6748466,5.50306748 53.4196319,5.50306748 L51.5214724,5.50306748 C51.2822086,5.50306748 51.1226994,5.37546012 50.9153374,5.24785276 L47.2625767,2.93496933 C47.0552147,2.80736196 46.8797546,2.90306748 46.8797546,3.14233129 L46.8797546,7.08220859 C46.8797546,7.32147239 46.6723926,7.52883436 46.4331288,7.52883436 L44.5349693,7.52883436 C44.2957055,7.52883436 44.0883436,7.32147239 44.0883436,7.08220859 L44.0883436,0.446625767 C44.0883436,0.207361963 44.2957055,0 44.5349693,0 L46.5766871,0 C46.8159509,0 46.9754601,0.111656442 47.1828221,0.239263804 L52.1595092,3.46134969 C52.3668712,3.58895706 52.5742331,3.58895706 52.7815951,3.46134969 L57.7582822,0.239263804 C57.9656442,0.111656442 58.1092025,0 58.3644172,0 L60.406135,0 C60.6453988,0 60.8527607,0.207361963 60.8527607,0.446625767 L60.8527607,7.08220859 C60.8527607,7.32147239 60.6453988,7.52883436 60.406135,7.52883436 L58.5079755,7.52883436 C58.2687117,7.52883436 58.0613497,7.32147239 58.0613497,7.08220859 L58.0613497,3.15828221 C58.0613497,2.9190184 57.8858896,2.82331288 57.6785276,2.95092025 L54.0257669,5.24785276 L54.0257669,5.24785276 Z" d="M54.0257669,5.24785276 C53.8184049,5.37546012 53.6748466,5.50306748 53.4196319,5.50306748 L51.5214724,5.50306748 C51.2822086,5.50306748 51.1226994,5.37546012 50.9153374,5.24785276 L47.2625767,2.93496933 C47.0552147,2.80736196 46.8797546,2.90306748 46.8797546,3.14233129 L46.8797546,7.08220859 C46.8797546,7.32147239 46.6723926,7.52883436 46.4331288,7.52883436 L44.5349693,7.52883436 C44.2957055,7.52883436 44.0883436,7.32147239 44.0883436,7.08220859 L44.0883436,0.446625767 C44.0883436,0.207361963 44.2957055,0 44.5349693,0 L46.5766871,0 C46.8159509,0 46.9754601,0.111656442 47.1828221,0.239263804 L52.1595092,3.46134969 C52.3668712,3.58895706 52.5742331,3.58895706 52.7815951,3.46134969 L57.7582822,0.239263804 C57.9656442,0.111656442 58.1092025,0 58.3644172,0 L60.406135,0 C60.6453988,0 60.8527607,0.207361963 60.8527607,0.446625767 L60.8527607,7.08220859 C60.8527607,7.32147239 60.6453988,7.52883436 60.406135,7.52883436 L58.5079755,7.52883436 C58.2687117,7.52883436 58.0613497,7.32147239 58.0613497,7.08220859 L58.0613497,3.15828221 C58.0613497,2.9190184 57.8858896,2.82331288 57.6785276,2.95092025 L54.0257669,5.24785276 L54.0257669,5.24785276 Z">
        </path>
        <path points="M32.5558282,1.91411043 C32.4282209,1.91411043 32.3165644,2.00981595 32.2368098,2.12147239 L31.0564417,3.63680982 C30.9766871,3.74846626 31.0245399,3.84417178 31.1521472,3.84417178 L39.6380368,3.84417178 C39.9092025,3.84417178 39.9251534,3.74846626 39.9251534,3.47730061 L39.9251534,2.42453988 C39.9251534,2.05766871 39.9411043,1.93006135 39.6380368,1.93006135 L32.5558282,1.93006135 L32.5558282,1.91411043 Z M27.6110429,7.52883436 L25.1546012,7.52883436 C24.9631902,7.52883436 24.8834356,7.35337423 24.9791411,7.19386503 L30.3067485,0.303067485 C30.4343558,0.143558282 30.609816,-1.33226763e-15 30.801227,-1.33226763e-15 L42.2380368,-1.33226763e-15 C42.5411043,-1.33226763e-15 42.7325153,0.255214724 42.7325153,0.558282209 L42.7325153,6.97055215 L42.7325153,7.08220859 C42.7325153,7.32147239 42.5251534,7.52883436 42.2858896,7.52883436 L42.2380368,7.52883436 L40.3717791,7.52883436 C40.1325153,7.52883436 39.9251534,7.32147239 39.9251534,7.08220859 L39.9251534,6.14110429 C39.9251534,5.86993865 39.8932515,5.77423313 39.6380368,5.77423313 L29.6208589,5.77423313 C29.4294479,5.77423313 29.3018405,5.90184049 29.1742331,6.06134969 L29.1423313,6.09325153 L28.3766871,7.08220859 C28.1852761,7.32147239 27.9141104,7.52883436 27.6748466,7.52883436 L27.6110429,7.52883436 Z" d="M32.5558282,1.91411043 C32.4282209,1.91411043 32.3165644,2.00981595 32.2368098,2.12147239 L31.0564417,3.63680982 C30.9766871,3.74846626 31.0245399,3.84417178 31.1521472,3.84417178 L39.6380368,3.84417178 C39.9092025,3.84417178 39.9251534,3.74846626 39.9251534,3.47730061 L39.9251534,2.42453988 C39.9251534,2.05766871 39.9411043,1.93006135 39.6380368,1.93006135 L32.5558282,1.93006135 L32.5558282,1.91411043 Z M27.6110429,7.52883436 L25.1546012,7.52883436 C24.9631902,7.52883436 24.8834356,7.35337423 24.9791411,7.19386503 L30.3067485,0.303067485 C30.4343558,0.143558282 30.609816,-1.33226763e-15 30.801227,-1.33226763e-15 L42.2380368,-1.33226763e-15 C42.5411043,-1.33226763e-15 42.7325153,0.255214724 42.7325153,0.558282209 L42.7325153,6.97055215 L42.7325153,7.08220859 C42.7325153,7.32147239 42.5251534,7.52883436 42.2858896,7.52883436 L42.2380368,7.52883436 L40.3717791,7.52883436 C40.1325153,7.52883436 39.9251534,7.32147239 39.9251534,7.08220859 L39.9251534,6.14110429 C39.9251534,5.86993865 39.8932515,5.77423313 39.6380368,5.77423313 L29.6208589,5.77423313 C29.4294479,5.77423313 29.3018405,5.90184049 29.1742331,6.06134969 L29.1423313,6.09325153 L28.3766871,7.08220859 C28.1852761,7.32147239 27.9141104,7.52883436 27.6748466,7.52883436 L27.6110429,7.52883436 Z">
        </path>
        <path points="M22.5865031,7.52883436 C22.8257669,7.52883436 23.0969325,7.33742331 23.2883436,7.08220859 L28.408589,0.446625767 C28.6,0.207361963 28.5042945,4.4408921e-15 28.2650307,4.4408921e-15 L27.2441718,4.4408921e-15 C27.0527607,4.4408921e-15 26.8773006,0.127607362 26.7496933,0.303067485 L21.4220859,7.19386503 C21.3423313,7.35337423 21.4220859,7.52883436 21.597546,7.52883436 L22.5865031,7.52883436 Z" d="M22.5865031,7.52883436 C22.8257669,7.52883436 23.0969325,7.33742331 23.2883436,7.08220859 L28.408589,0.446625767 C28.6,0.207361963 28.5042945,4.4408921e-15 28.2650307,4.4408921e-15 L27.2441718,4.4408921e-15 C27.0527607,4.4408921e-15 26.8773006,0.127607362 26.7496933,0.303067485 L21.4220859,7.19386503 C21.3423313,7.35337423 21.4220859,7.52883436 21.597546,7.52883436 L22.5865031,7.52883436 Z">
        </path>
        <path points="M19.0134969,7.52883436 C19.2527607,7.52883436 19.5239264,7.33742331 19.7153374,7.08220859 L24.8355828,0.446625767 C25.0269939,0.207361963 24.9312883,4.4408921e-15 24.6920245,4.4408921e-15 L23.2404908,4.4408921e-15 C23.0490798,4.4408921e-15 22.8736196,0.127607362 22.7460123,0.303067485 L17.4184049,7.19386503 C17.3386503,7.35337423 17.4184049,7.52883436 17.593865,7.52883436 L19.0134969,7.52883436 Z" d="M19.0134969,7.52883436 C19.2527607,7.52883436 19.5239264,7.33742331 19.7153374,7.08220859 L24.8355828,0.446625767 C25.0269939,0.207361963 24.9312883,4.4408921e-15 24.6920245,4.4408921e-15 L23.2404908,4.4408921e-15 C23.0490798,4.4408921e-15 22.8736196,0.127607362 22.7460123,0.303067485 L17.4184049,7.19386503 C17.3386503,7.35337423 17.4184049,7.52883436 17.593865,7.52883436 L19.0134969,7.52883436 Z">
        </path>
        <path points="M13.1754601,7.52883436 C12.9840491,7.52883436 12.9042945,7.35337423 13,7.19386503 L18.3276074,0.303067485 C18.4552147,0.143558282 18.6306748,-1.33226763e-15 18.8220859,-1.33226763e-15 L20.9435583,-1.33226763e-15 C21.1828221,-1.33226763e-15 21.2785276,0.207361963 21.0871166,0.446625767 L15.9509202,7.08220859 C15.7595092,7.32147239 15.4883436,7.52883436 15.2490798,7.52883436 L13.1754601,7.52883436 Z" d="M13.1754601,7.52883436 C12.9840491,7.52883436 12.9042945,7.35337423 13,7.19386503 L18.3276074,0.303067485 C18.4552147,0.143558282 18.6306748,-1.33226763e-15 18.8220859,-1.33226763e-15 L20.9435583,-1.33226763e-15 C21.1828221,-1.33226763e-15 21.2785276,0.207361963 21.0871166,0.446625767 L15.9509202,7.08220859 C15.7595092,7.32147239 15.4883436,7.52883436 15.2490798,7.52883436 L13.1754601,7.52883436 Z">
        </path>
        <path points="M8.31042945,7.52883436 C8.1190184,7.52883436 8.0392638,7.35337423 8.13496933,7.19386503 L13.4466258,0.303067485 C13.5742331,0.143558282 13.7496933,0 13.9411043,0 L16.796319,0 C17.0355828,0 17.1312883,0.207361963 16.9398773,0.446625767 L11.8196319,7.08220859 C11.6282209,7.32147239 11.3570552,7.52883436 11.1177914,7.52883436 L8.31042945,7.52883436 Z" d="M8.31042945,7.52883436 C8.1190184,7.52883436 8.0392638,7.35337423 8.13496933,7.19386503 L13.4466258,0.303067485 C13.5742331,0.143558282 13.7496933,0 13.9411043,0 L16.796319,0 C17.0355828,0 17.1312883,0.207361963 16.9398773,0.446625767 L11.8196319,7.08220859 C11.6282209,7.32147239 11.3570552,7.52883436 11.1177914,7.52883436 L8.31042945,7.52883436 Z">
        </path>
        <path points="M0.319018405,7.52883436 C0.127607362,7.52883436 0.0478527607,7.35337423 0.143558282,7.19386503 L5.45521472,0.303067485 C5.58282209,0.143558282 5.77423313,0 5.94969325,0 L12.1865031,0 C12.4257669,0 12.5214724,0.207361963 12.3300613,0.446625767 L7.22576687,7.08220859 C7.03435583,7.32147239 6.76319018,7.52883436 6.52392638,7.52883436 L0.319018405,7.52883436 Z" d="M0.319018405,7.52883436 C0.127607362,7.52883436 0.0478527607,7.35337423 0.143558282,7.19386503 L5.45521472,0.303067485 C5.58282209,0.143558282 5.77423313,0 5.94969325,0 L12.1865031,0 C12.4257669,0 12.5214724,0.207361963 12.3300613,0.446625767 L7.22576687,7.08220859 C7.03435583,7.32147239 6.76319018,7.52883436 6.52392638,7.52883436 L0.319018405,7.52883436 Z">
        </path>
    </g>
</svg>
