<svg width="96" height="11" viewBox="0 0 96 11" fill="none" xmlns="http://www.w3.org/2000/svg">
    <path d="M61.677 6.14961H65.2486V7.01575H61.677V6.14961ZM2.17786 1.12598L1.8294 9.35433V9.52756C1.8294 10.2205 2.00363 10.3937 3.13612 10.4803V10.8268C2.35209 10.7402 2.00363 10.7402 1.56806 10.7402C1.13249 10.7402 0.784029 10.7402 0 10.8268V10.4803C1.13249 10.3937 1.30672 10.3071 1.30672 9.44094L1.65517 1.64567V1.55906C1.65517 0.866142 1.39383 0.692913 0.348457 0.606299V0.173228C0.958258 0.259843 1.2196 0.259843 1.65517 0.259843C2.26497 0.259843 2.52632 0.259843 3.13612 0.173228L6.098 8.22835L9.14701 0.173228C9.84392 0.259843 10.1924 0.259843 10.7151 0.259843C11.1506 0.259843 11.412 0.259843 12.0218 0.173228V0.606299C10.9764 0.692913 10.7151 0.866142 10.7151 1.55906V1.64567L10.8893 9.44094C10.8893 10.3071 11.0635 10.3937 12.196 10.4803V10.8268C11.1506 10.7402 10.8022 10.7402 10.1924 10.7402C9.58258 10.7402 9.23412 10.7402 8.18875 10.8268V10.4803C9.23412 10.3937 9.49546 10.2205 9.49546 9.52756V9.44094L9.32123 1.2126L6.62069 8.22835L6.44646 8.74803L6.18512 9.35433L6.01089 9.96063L5.83666 10.4803H5.57532L5.40109 9.96063L5.13975 9.35433L4.96552 8.74803L4.79129 8.14173L2.17786 1.12598ZM16.2904 10.4803C14.8094 10.4803 14.1996 9.35433 14.1996 6.84252H18.9909C18.9909 4.41732 17.9456 3.11811 16.029 3.11811C14.1125 3.11811 12.8929 4.67717 12.8929 7.10236C12.8929 9.52756 14.1125 11 16.1162 11C17.6842 11 18.7296 10.0472 18.9038 8.40158H18.294C18.1198 9.70079 17.4229 10.4803 16.2904 10.4803ZM14.1996 6.23622C14.3739 4.41732 14.9837 3.46457 16.029 3.46457C17.0744 3.46457 17.5971 4.33071 17.6842 6.23622H14.1996ZM19.8621 3.6378V3.37795C20.7332 3.29134 21.343 3.20472 21.9528 3.0315C22.0399 3.6378 22.0399 3.89764 22.127 4.33071V4.50394C22.4755 3.6378 23.1724 3.0315 23.9564 3.0315C24.7405 3.0315 25.3503 3.55118 25.3503 4.33071C25.3503 4.76378 25.0889 5.11024 24.6534 5.11024C24.3049 5.11024 23.9564 4.85039 23.9564 4.59055V4.15748C23.9564 3.89764 23.7822 3.81102 23.4338 3.81102C22.5626 3.81102 22.0399 4.85039 22.0399 6.40945V9.70079C22.0399 10.3937 22.2142 10.4803 23.1724 10.5669V10.9134C22.3013 10.8268 21.9528 10.8268 21.4301 10.8268C20.8203 10.8268 20.559 10.8268 19.6007 10.9134V10.5669C20.559 10.4803 20.7332 10.3937 20.7332 9.70079V4.41732C20.7332 3.72441 20.6461 3.6378 19.775 3.6378H19.8621ZM31.5354 2.94488V5.54331H31.1869C30.9256 4.15748 30.3158 3.46457 29.3575 3.46457C28.1379 3.46457 27.441 4.76378 27.441 7.01575C27.441 9.26772 28.0508 10.3937 29.2704 10.3937C30.2287 10.3937 30.8385 9.70079 31.0127 8.31496H31.7096C31.5354 10.0472 30.5771 10.9134 29.1833 10.9134C27.3539 10.9134 26.0472 9.35433 26.0472 7.01575C26.0472 4.67717 27.3539 3.0315 29.1833 3.0315C29.8802 3.0315 30.3158 3.20472 30.8385 3.72441L31.274 2.94488H31.5354ZM36.2396 10.4803C34.7586 10.4803 34.1488 9.35433 34.1488 6.84252H38.9401C38.9401 4.41732 37.8947 3.11811 35.9782 3.11811C34.0617 3.11811 32.8421 4.67717 32.8421 7.10236C32.8421 9.52756 34.0617 11 36.0653 11C37.6334 11 38.6788 10.0472 38.853 8.40158H38.2432C38.069 9.70079 37.3721 10.4803 36.2396 10.4803ZM34.1488 6.23622C34.323 4.41732 34.9328 3.46457 35.9782 3.46457C37.0236 3.46457 37.5463 4.33071 37.6334 6.23622H34.1488ZM46.3448 9.1811V0C45.5608 0.173228 44.8639 0.346457 43.9056 0.433071V0.692913C44.951 0.692913 45.0381 0.779528 45.0381 1.64567V4.41732C44.4283 3.46457 43.9927 3.20472 43.1216 3.20472C41.3793 3.20472 40.2468 4.85039 40.2468 7.10236C40.2468 9.35433 41.4664 11 43.2087 11C44.0799 11 44.7768 10.5669 45.2123 9.70079C45.2995 10.3071 45.2995 10.3937 45.4737 11C46.1706 10.8268 46.4319 10.7402 47.3031 10.6535H47.5644V10.3937C46.4319 10.2205 46.3448 10.1339 46.3448 9.1811ZM43.2958 10.5669C42.1633 10.5669 41.5535 9.35433 41.5535 7.10236C41.5535 4.76378 42.0762 3.6378 43.2958 3.6378C44.5154 3.6378 45.1252 4.85039 45.1252 7.18898C45.0381 9.35433 44.4283 10.5669 43.2958 10.5669ZM51.4846 10.4803C50.0036 10.4803 49.3938 9.35433 49.3938 6.84252H54.1851C54.1851 4.41732 53.1397 3.11811 51.2232 3.11811C49.3067 3.11811 48.0871 4.67717 48.0871 7.10236C48.0871 9.52756 49.3067 11 51.3103 11C52.8784 11 53.9238 10.0472 54.098 8.40158H53.4882C53.314 9.70079 52.6171 10.4803 51.4846 10.4803ZM49.3938 6.23622C49.5681 4.41732 50.1779 3.46457 51.2232 3.46457C52.2686 3.46457 52.7913 4.33071 52.8784 6.23622H49.3938ZM55.4918 11V8.31496H55.8403C56.1016 9.7874 56.7985 10.4803 57.931 10.4803C58.8893 10.4803 59.5862 9.87402 59.5862 9.00787C59.5862 8.48819 59.3249 8.14173 58.5408 7.70866L57.931 7.44882L57.147 7.18898C56.0145 6.66929 55.5789 6.23622 55.5789 5.28346C55.5789 3.98425 56.5372 3.20472 58.0181 3.20472C58.6279 3.20472 59.0635 3.37795 59.6733 3.72441L59.9347 3.0315H60.196V5.45669H59.8476C59.6733 4.15748 59.1506 3.55118 58.1924 3.55118C57.3212 3.55118 56.7114 4.15748 56.7114 4.85039C56.7114 5.45669 56.9728 5.71654 58.3666 6.32283L59.0635 6.58268C60.2831 7.10236 60.7187 7.62205 60.7187 8.5748C60.7187 9.87402 59.6733 10.8268 58.1053 10.8268C57.4084 10.8268 56.7985 10.6535 56.1887 10.1339L55.8403 10.8268H55.4918V11ZM72.7405 2.77165C72.7405 1.90551 72.392 1.2126 71.7822 0.779528C71.2595 0.346457 70.6497 0.173228 69.6044 0.173228H65.4229V0.606299C66.5554 0.692913 66.7296 0.779528 66.7296 1.64567V9.35433C66.7296 10.2205 66.6425 10.3071 65.4229 10.3937V10.7402H69.4301C70.6497 10.7402 71.2595 10.5669 71.9564 10.2205C72.7405 9.70079 73.2632 8.74803 73.2632 7.70866C73.2632 6.84252 72.9147 6.06299 72.3049 5.62992C71.9564 5.37008 71.608 5.19685 70.9982 5.11024C72.1307 4.67717 72.7405 3.89764 72.7405 2.77165ZM68.0363 0.692913H69.4301C70.7368 0.692913 71.3466 1.38583 71.3466 2.85827C71.3466 3.55118 71.1724 4.15748 70.824 4.50394C70.4755 4.93701 70.0399 5.02362 69.1688 5.02362H68.0363V0.692913ZM69.6044 5.45669C70.4755 5.45669 70.9111 5.62992 71.2595 5.97638C71.608 6.32283 71.8693 7.01575 71.8693 7.79528C71.8693 9.35433 71.0853 10.3071 69.6044 10.3071H68.9946C68.1234 10.3071 68.0363 10.2205 68.0363 9.44094V5.45669H69.6044ZM77.9673 10.4803C76.4864 10.4803 75.8766 9.35433 75.8766 6.84252H80.6679C80.6679 4.41732 79.6225 3.11811 77.706 3.11811C75.7895 3.11811 74.5699 4.67717 74.5699 7.10236C74.5699 9.52756 75.7895 11 77.7931 11C79.3612 11 80.4065 10.0472 80.5808 8.40158H79.971C79.7967 9.70079 79.0998 10.4803 77.9673 10.4803ZM75.8766 6.23622C76.0508 4.41732 76.6606 3.46457 77.706 3.46457C78.7514 3.46457 79.274 4.33071 79.3612 6.23622H75.8766ZM81.4519 3.72441V3.46457C82.4102 3.37795 82.9328 3.20472 83.5426 2.94488C83.6298 3.29134 83.6298 3.72441 83.7169 4.33071C84.3267 3.46457 84.9365 3.11811 85.8947 3.11811C86.853 3.11811 87.7241 3.6378 87.9855 4.41732C88.1597 4.76378 88.2468 5.28346 88.2468 5.88976V9.70079C88.2468 10.3937 88.4211 10.4803 89.3793 10.5669V10.9134C88.5082 10.8268 88.2468 10.8268 87.637 10.8268C87.0272 10.8268 86.7659 10.8268 85.8947 10.9134V10.5669C86.7659 10.5669 86.9401 10.3937 86.9401 9.70079V5.80315C86.9401 4.41732 86.5045 3.89764 85.4592 3.89764C84.4138 3.89764 83.804 4.59055 83.804 5.88976V9.70079C83.804 10.3071 83.9782 10.4803 84.8494 10.5669V10.9134C83.9782 10.8268 83.7169 10.8268 83.1071 10.8268C82.5844 10.8268 82.2359 10.8268 81.3648 10.9134V10.5669C82.323 10.4803 82.4973 10.3937 82.4973 9.70079V4.50394C82.4973 3.81102 82.4102 3.72441 81.6261 3.72441H81.4519ZM89.9891 10.8268L94.3448 3.72441H92.3412C91.2958 3.72441 91.0345 3.98425 90.5118 5.37008H90.1633L90.5118 3.29134H96L91.6443 10.3937H93.4737C94.5191 10.3937 95.0417 9.96063 95.4773 8.48819H95.8258L95.3902 10.7402L89.9891 10.8268Z" fill="black"/>
</svg>