<svg viewBox="0 0 210 23" version="1.1" xmlns="http://www.w3.org/2000/svg" xmlns:xlink="http://www.w3.org/1999/xlink">
    <title>maybach</title>
    <g id="maybach" stroke="none" stroke-width="1" fill="none" fill-rule="evenodd">
        <path d="M107.09955,3.53258304 L98.2806525,3.53258304 L98.2806525,9.496039 L107.09955,9.496039 C109.187994,9.496039 110.880052,8.16139348 110.880052,6.5143036 C110.880052,4.86800674 109.187994,3.53258304 107.09955,3.53258304 Z M47.8809331,4.62102563 L42.2765202,14.7964552 L53.4853464,14.7964552 L47.8809331,4.62102563 Z M136.080227,4.62102563 L130.475814,14.7964552 L141.68389,14.7964552 L136.080227,4.62102563 Z M109.199798,12.5884012 L98.2806525,12.5884012 L98.2806525,19.4346168 L109.199798,19.4346168 C111.520057,19.4346168 113.400357,17.9028469 113.400357,16.0111208 C113.400357,14.1217278 111.520057,12.5884012 109.199798,12.5884012 Z M4.63248538,0.440946247 L14.2804745,10.1264166 L23.9284619,0.440946247 L28.560209,0.440946247 L28.560209,22.5271667 L23.6261958,22.5271667 L23.6261958,5.94944925 L14.2804745,15.3326084 L4.93475019,5.94944925 L4.93475019,22.5271667 L0,22.5271667 L0,0.440946247 L4.63248538,0.440946247 Z M66.3603129,0.440987657 L74.7606303,10.0632396 L83.1617048,0.440987657 L88.532745,0.440987657 L77.3335572,13.2693619 L77.3335572,22.5269824 L72.1884608,22.5269824 L72.1884608,13.2693619 L60.9892602,0.440987657 L66.3603129,0.440987657 Z M189.000271,0.440987657 L189.000271,9.496039 L204.96014,9.496039 L204.96014,0.440987657 L210,0.440987657 L210,22.5269828 L204.96014,22.5269828 L204.96014,12.5884012 L189.000271,12.5884012 L189.000271,22.5269828 L183.960398,22.5269828 L183.960398,0.440987657 L189.000271,0.440987657 Z M50.7427766,0.440987657 L63.1525062,22.5269828 L57.7421815,22.5269828 L55.1877862,17.8888243 L40.5740863,17.8888243 L38.0189399,22.5269828 L32.6086339,22.5269828 L45.0183448,0.440987657 L50.7427766,0.440987657 Z M107.939651,0.440987657 C112.346916,0.440987657 115.920675,3.30896808 115.920675,6.84621428 C115.920675,8.01880446 115.527992,9.11737637 114.842,10.0632396 C117.017788,11.2997277 118.440217,13.3550662 118.440217,15.6807702 C118.440217,19.383113 114.83479,22.3989595 110.328691,22.5230136 L110.039975,22.5269824 L93.2414932,22.5269824 L93.2414932,0.440987657 L107.939651,0.440987657 Z M138.942885,0.440987657 L151.351826,22.5269828 L145.942214,22.5269828 L143.387825,17.8888243 L128.773393,17.8888243 L126.219016,22.5269828 L120.808754,22.5269828 L133.217683,0.440987657 L138.942885,0.440987657 Z M168.420599,0 C172.126287,0 175.583738,0.646683317 178.49968,1.76628652 L178.49968,5.53961289 C175.917128,4.02654733 172.354509,3.09081238 168.420599,3.09081238 C162.505089,3.09081238 157.710361,6.84933731 157.710361,11.4843728 C157.710361,16.1194179 162.505089,19.8763813 168.420599,19.8763813 C172.354509,19.8763813 175.917128,18.9414276 178.49968,17.4291375 L178.49968,21.2016836 C175.583738,22.3220719 172.126287,22.96875 168.420599,22.96875 C159.605406,22.96875 152.460842,17.8280491 152.460842,11.4843724 C152.460842,5.14070403 159.605407,0 168.420599,0 Z" id="Shape" fill="#000000" fill-rule="nonzero"></path>
    </g>
</svg>